# xmcd
#
# Track frame offsets: 
#        300
#        23177
#        48897
#        64526
#        91349
#        128281
#        148829
#
# Disc length: 2736 seconds
#
# Revision: 3
# Processed by: cddbd v1.5.2PL0 Copyright (c) Steve Scherf et al.
# Submitted via: ExactAudioCopy v1.0b1
#
DISCID=540aac07
DTITLE=Blues Mobile Band - A New Day Yesterday
DYEAR=1993
DGENRE=
TTITLE0=Hochie Cochie Man
TTITLE1=I Wakw Up This Morning
TTITLE2=Can't Find My Way Home
TTITLE3=It's My Own Fault
TTITLE4=A New Day Yesterday
TTITLE5=A Fool No More
TTITLE6=Medley
EXTD=Medley - a. Yer Blues, b. Revolution 9, c. Everybody Got Somethin
EXTD=g To Hide Exept Me And My Monkey, d. A Day In The Life, e. The En
EXTD=d
EXTT0=
EXTT1=
EXTT2=
EXTT3=
EXTT4=
EXTT5=
EXTT6=
PLAYORDER=
